FILE "CDROM/myimage.bin" BINARY
  TRACK 01 MODE2/2352
    INDEX 01 00:00:00
  TRACK 02 AUDIO
    PREGAP 00:02:00
    INDEX 01 00:01:09
  TRACK 03 AUDIO
    INDEX 01 00:02:09
  TRACK 04 AUDIO
    INDEX 01 01:44:62
